<svg version="1.1" id="Layer_1" xmlns="http://www.w3.org/2000/svg" xmlns:xlink="http://www.w3.org/1999/xlink" x="0px" y="0px"
	 width="100%" viewBox="0 0 512 512" enable-background="new 0 0 512 512" xml:space="preserve">
<path fill="#000000" opacity="1.000000" stroke="none" 
	d="
M300.000000,513.000000 
	C200.024277,513.000000 100.548546,513.000000 1.036411,513.000000 
	C1.036411,342.399261 1.036411,171.798492 1.036411,1.098866 
	C171.559067,1.098866 342.118225,1.098866 512.838684,1.098866 
	C512.838684,171.666550 512.838684,342.333252 512.838684,513.000000 
	C442.131805,513.000000 371.315887,513.000000 300.000000,513.000000 
M276.072784,72.011909 
	C215.105072,72.011909 154.137360,72.011909 92.999901,72.011909 
	C92.999901,81.590057 93.088570,90.558594 92.910324,99.521828 
	C92.881500,100.971420 91.666534,102.397438 90.337982,103.972168 
	C89.892006,103.926216 89.446037,103.880272 88.552757,103.095482 
	C85.390251,103.063652 82.223785,102.916878 79.066124,103.025703 
	C73.707802,103.210373 68.355042,103.556221 62.140610,103.975449 
	C60.522758,104.052803 58.904907,104.130165 56.849884,104.228424 
	C58.428181,114.038155 59.977127,123.485420 61.462452,132.942673 
	C63.335022,144.865555 65.226295,156.786209 66.978981,168.727005 
	C68.757797,180.845856 70.221107,193.012497 72.112907,205.112823 
	C73.873314,216.372726 76.216614,227.542068 77.945000,238.806274 
	C80.791466,257.357239 83.201385,275.975433 86.070320,294.522736 
	C88.859962,312.557465 92.059868,330.528290 94.960922,348.546326 
	C98.044785,367.699707 100.954605,386.881165 104.079208,406.027710 
	C104.269554,407.194092 105.461067,408.577881 106.557953,409.154846 
	C114.731964,413.454498 122.993324,417.588623 131.239761,421.749939 
	C141.340286,426.846893 151.435928,431.954071 161.565247,436.993317 
	C171.289474,441.831085 181.079987,446.535980 190.792938,451.395996 
	C199.041214,455.523193 207.214203,459.800598 215.431793,463.989380 
	C225.680069,469.213318 235.856445,474.589905 246.238907,479.532898 
	C250.001877,481.324402 254.981339,484.038818 258.171600,482.893738 
	C267.224426,479.644470 275.690613,474.717896 284.293182,470.268860 
	C293.625763,465.442200 302.725922,460.152069 312.159973,455.539703 
	C321.476257,450.984924 331.173645,447.214478 340.538208,442.752350 
	C350.776428,437.874054 360.812927,432.573608 370.959106,427.500549 
	C382.095612,421.932373 393.308838,416.513794 404.357208,410.776917 
	C406.241425,409.798523 408.445892,407.746948 408.826935,405.853851 
	C410.549377,397.297058 411.725159,388.627167 412.988800,379.982086 
	C413.908905,373.687073 414.507965,367.343079 415.513550,361.063110 
	C418.268707,343.857117 421.233154,326.684631 423.977753,309.476990 
	C425.826324,297.887085 427.367737,286.248413 429.180054,274.652435 
	C431.721832,258.389069 434.464752,242.156982 436.968933,225.888016 
	C438.286255,217.329483 439.125580,208.697067 440.461304,200.141815 
	C441.789917,191.632080 443.634125,183.202789 444.958649,174.692520 
	C447.117157,160.823669 448.958282,146.905624 451.078949,133.030594 
	C453.295502,118.528442 455.699554,104.055038 457.992249,89.564423 
	C459.725281,78.611305 461.245117,67.621262 463.181122,56.704632 
	C464.368225,50.010715 464.599579,49.895447 457.813354,50.024498 
	C444.693481,50.273979 431.577332,50.859928 418.457642,50.929619 
	C410.194122,50.973515 401.929596,50.184677 393.660767,50.039085 
	C384.136536,49.871395 374.607117,50.000912 365.079926,50.001308 
	C351.212921,50.001884 337.344940,49.907204 323.479370,50.047462 
	C317.508667,50.107861 311.541962,50.916119 305.575195,50.894413 
	C301.178955,50.878426 296.785553,50.067036 292.977875,49.671101 
	C289.473328,54.599560 286.356964,58.741943 283.520752,63.068001 
	C282.011566,65.369881 281.109436,68.063675 279.677917,70.425804 
	C279.180939,71.245865 277.914856,71.599792 276.072784,72.011909 
z"/>
<path fill="#3B82F6" opacity="1.000000" stroke="none" 
	d="
M89.000061,103.834320 
	C89.446037,103.880272 89.892006,103.926216 91.133385,103.970200 
	C145.571625,103.978790 199.214447,103.994995 252.857269,103.969391 
	C254.282715,103.968712 256.354462,104.028336 257.025024,103.185158 
	C260.552429,98.749916 263.766296,94.061302 267.008698,89.404724 
	C269.396545,85.975426 272.249847,82.695000 273.764130,78.897064 
	C274.702667,76.543106 279.664215,76.064804 277.000031,72.166611 
	C277.914856,71.599792 279.180939,71.245865 279.677917,70.425804 
	C281.109436,68.063675 282.011566,65.369881 283.520752,63.068001 
	C286.356964,58.741943 289.473328,54.599560 292.977875,49.671101 
	C296.785553,50.067036 301.178955,50.878426 305.575195,50.894413 
	C311.541962,50.916119 317.508667,50.107861 323.479370,50.047462 
	C337.344940,49.907204 351.212921,50.001884 365.079926,50.001308 
	C374.607117,50.000912 384.136536,49.871395 393.660767,50.039085 
	C401.929596,50.184677 410.194122,50.973515 418.457642,50.929619 
	C431.577332,50.859928 444.693481,50.273979 457.813354,50.024498 
	C464.599579,49.895447 464.368225,50.010715 463.181122,56.704632 
	C461.245117,67.621262 459.725281,78.611305 457.992249,89.564423 
	C455.699554,104.055038 453.295502,118.528442 451.078949,133.030594 
	C448.958282,146.905624 447.117157,160.823669 444.958649,174.692520 
	C443.634125,183.202789 441.789917,191.632080 440.461304,200.141815 
	C439.125580,208.697067 438.286255,217.329483 436.968933,225.888016 
	C434.464752,242.156982 431.721832,258.389069 429.180054,274.652435 
	C427.367737,286.248413 425.826324,297.887085 423.977753,309.476990 
	C421.233154,326.684631 418.268707,343.857117 415.513550,361.063110 
	C414.507965,367.343079 413.908905,373.687073 412.988800,379.982086 
	C411.725159,388.627167 410.549377,397.297058 408.826935,405.853851 
	C408.445892,407.746948 406.241425,409.798523 404.357208,410.776917 
	C393.308838,416.513794 382.095612,421.932373 370.959106,427.500549 
	C360.812927,432.573608 350.776428,437.874054 340.538208,442.752350 
	C331.173645,447.214478 321.476257,450.984924 312.159973,455.539703 
	C302.725922,460.152069 293.625763,465.442200 284.293182,470.268860 
	C275.690613,474.717896 267.224426,479.644470 258.171600,482.893738 
	C254.981339,484.038818 250.001877,481.324402 246.238907,479.532898 
	C235.856445,474.589905 225.680069,469.213318 215.431793,463.989380 
	C207.214203,459.800598 199.041214,455.523193 190.792938,451.395996 
	C181.079987,446.535980 171.289474,441.831085 161.565247,436.993317 
	C151.435928,431.954071 141.340286,426.846893 131.239761,421.749939 
	C122.993324,417.588623 114.731964,413.454498 106.557953,409.154846 
	C105.461067,408.577881 104.269554,407.194092 104.079208,406.027710 
	C100.954605,386.881165 98.044785,367.699707 94.960922,348.546326 
	C92.059868,330.528290 88.859962,312.557465 86.070320,294.522736 
	C83.201385,275.975433 80.791466,257.357239 77.945000,238.806274 
	C76.216614,227.542068 73.873314,216.372726 72.112907,205.112823 
	C70.221107,193.012497 68.757797,180.845856 66.978981,168.727005 
	C65.226295,156.786209 63.335022,144.865555 61.462452,132.942673 
	C59.977127,123.485420 58.428181,114.038155 56.849884,104.228424 
	C58.904907,104.130165 60.522758,104.052803 63.034744,103.971764 
	C72.285934,103.923492 80.642998,103.878906 89.000061,103.834320 
M278.474365,190.982544 
	C273.083832,188.976288 267.796692,186.609253 262.283813,185.030106 
	C244.322891,179.885254 221.716583,194.593475 217.694870,212.092941 
	C215.512299,221.589996 215.688339,231.650635 215.077316,241.474274 
	C214.892136,244.451477 214.433060,246.070740 210.937363,246.078400 
	C205.616653,246.090073 204.007477,247.972000 204.005127,253.282761 
	C203.993820,278.935699 203.996460,304.588654 204.002579,330.241577 
	C204.004074,336.490540 205.553589,337.997284 211.958771,337.998169 
	C241.276413,338.002289 270.594055,338.000214 299.911713,337.999817 
	C307.491547,337.999695 309.853699,335.306519 309.176880,327.541718 
	C309.018341,325.722595 309.007843,323.886597 309.006989,322.058319 
	C308.996277,299.237213 308.949615,276.415863 309.041229,253.595123 
	C309.060211,248.871048 307.587524,246.236130 302.391327,245.798737 
	C300.675507,245.654297 297.945679,243.320862 297.760956,241.744415 
	C297.049927,235.676956 297.144745,229.511520 297.007568,223.381088 
	C296.697601,209.530457 290.671570,198.926147 278.474365,190.982544 
z"/>
<path fill="#FFFFFF" opacity="1.000000" stroke="none" 
	d="
M276.536407,72.089264 
	C279.664215,76.064804 274.702667,76.543106 273.764130,78.897064 
	C272.249847,82.695000 269.396545,85.975426 267.008698,89.404724 
	C263.766296,94.061302 260.552429,98.749916 257.025024,103.185158 
	C256.354462,104.028336 254.282715,103.968712 252.857269,103.969391 
	C199.214447,103.994995 145.571625,103.978790 91.464325,103.901291 
	C91.666534,102.397438 92.881500,100.971420 92.910324,99.521828 
	C93.088570,90.558594 92.999901,81.590057 92.999901,72.011909 
	C154.137360,72.011909 215.105072,72.011909 276.536407,72.089264 
z"/>
<path fill="#FFFFFF" opacity="1.000000" stroke="none" 
	d="
M88.776413,103.464905 
	C80.642998,103.878906 72.285934,103.923492 63.464409,103.901199 
	C68.355042,103.556221 73.707802,103.210373 79.066124,103.025703 
	C82.223785,102.916878 85.390251,103.063652 88.776413,103.464905 
z"/>
<path fill="#000000" opacity="1.000000" stroke="none" 
	d="
M278.743042,191.236572 
	C290.671570,198.926147 296.697601,209.530457 297.007568,223.381088 
	C297.144745,229.511520 297.049927,235.676956 297.760956,241.744415 
	C297.945679,243.320862 300.675507,245.654297 302.391327,245.798737 
	C307.587524,246.236130 309.060211,248.871048 309.041229,253.595123 
	C308.949615,276.415863 308.996277,299.237213 309.006989,322.058319 
	C309.007843,323.886597 309.018341,325.722595 309.176880,327.541718 
	C309.853699,335.306519 307.491547,337.999695 299.911713,337.999817 
	C270.594055,338.000214 241.276413,338.002289 211.958771,337.998169 
	C205.553589,337.997284 204.004074,336.490540 204.002579,330.241577 
	C203.996460,304.588654 203.993820,278.935699 204.005127,253.282761 
	C204.007477,247.972000 205.616653,246.090073 210.937363,246.078400 
	C214.433060,246.070740 214.892136,244.451477 215.077316,241.474274 
	C215.688339,231.650635 215.512299,221.589996 217.694870,212.092941 
	C221.716583,194.593475 244.322891,179.885254 262.283813,185.030106 
	C267.796692,186.609253 273.083832,188.976288 278.743042,191.236572 
M259.499878,247.000000 
	C266.590698,247.000000 273.681519,247.000000 280.996338,247.000000 
	C280.996338,238.344177 281.590729,230.303452 280.757111,222.413620 
	C280.309448,218.176880 278.125793,213.643112 275.468750,210.218369 
	C269.595886,202.648621 261.418701,200.806412 251.938385,201.837173 
	C243.081909,202.800140 233.104172,211.599182 232.218231,220.411667 
	C231.345871,229.089157 232.027893,237.922913 232.027893,247.000000 
	C241.231766,247.000000 249.865860,247.000000 259.499878,247.000000 
M262.000000,299.559448 
	C262.275452,295.114075 260.913544,290.587646 265.415131,286.849884 
	C270.730957,282.435974 270.510864,273.807709 265.347626,268.947632 
	C260.056610,263.967316 253.434738,263.756561 246.910416,269.070679 
	C242.598038,272.583099 241.603760,282.491913 246.080383,286.189117 
	C251.180023,290.400879 251.219101,295.316376 251.020599,300.823853 
	C250.906845,303.980194 251.102295,307.148193 250.973541,310.303345 
	C250.823273,313.985779 252.356354,316.719421 256.014557,316.855652 
	C259.829956,316.997711 261.864532,314.332581 261.977081,310.510223 
	C262.074921,307.186279 261.999084,303.857239 262.000000,299.559448 
z"/>
<path fill="#3B82F6" opacity="1.000000" stroke="none" 
	d="
M258.999939,247.000000 
	C249.865860,247.000000 241.231766,247.000000 232.027893,247.000000 
	C232.027893,237.922913 231.345871,229.089157 232.218231,220.411667 
	C233.104172,211.599182 243.081909,202.800140 251.938385,201.837173 
	C261.418701,200.806412 269.595886,202.648621 275.468750,210.218369 
	C278.125793,213.643112 280.309448,218.176880 280.757111,222.413620 
	C281.590729,230.303452 280.996338,238.344177 280.996338,247.000000 
	C273.681519,247.000000 266.590698,247.000000 258.999939,247.000000 
z"/>
<path fill="#3B82F6" opacity="1.000000" stroke="none" 
	d="
M262.000000,300.044952 
	C261.999084,303.857239 262.074921,307.186279 261.977081,310.510223 
	C261.864532,314.332581 259.829956,316.997711 256.014557,316.855652 
	C252.356354,316.719421 250.823273,313.985779 250.973541,310.303345 
	C251.102295,307.148193 250.906845,303.980194 251.020599,300.823853 
	C251.219101,295.316376 251.180023,290.400879 246.080383,286.189117 
	C241.603760,282.491913 242.598038,272.583099 246.910416,269.070679 
	C253.434738,263.756561 260.056610,263.967316 265.347626,268.947632 
	C270.510864,273.807709 270.730957,282.435974 265.415131,286.849884 
	C260.913544,290.587646 262.275452,295.114075 262.000000,300.044952 
z"/>
</svg>
